<?xml version="1.0" encoding="UTF-8" standalone="no"?><svg xmlns="http://www.w3.org/2000/svg" width="32" height="32" viewBox="0 0 32 32"><path fill="#3e82f1" d="M26.9 16.253a12.83 12.83 0 0 0-.2-2.276H16.223v4.3h5.987a5.121 5.121 0 0 1-2.22 3.358l3.6 2.791a10.853 10.853 0 0 0 3.31-8.173zm0 0" /><path fill="#32a753" d="M16.223 27.126a10.625 10.625 0 0 0 7.363-2.7l-3.6-2.791A6.712 6.712 0 0 1 10 18.114L6.28 21a11.121 11.121 0 0 0 9.943 6.13zm0 0" /><path fill="#f9bb00" d="M10 18.114a6.577 6.577 0 0 1 0-4.228L6.28 11a11.141 11.141 0 0 0 0 10L10 18.114zm0 0" /><path fill="#e74133" d="M16.223 9.3a6.013 6.013 0 0 1 4.253 1.664l3.191-3.191a10.7 10.7 0 0 0-7.444-2.9A11.121 11.121 0 0 0 6.28 11L10 13.886A6.631 6.631 0 0 1 16.223 9.3zm0 0" /></svg>
